<svg width="180" height="180" viewBox="0 0 180 180" fill="none" xmlns="http://www.w3.org/2000/svg">
  <rect width="180" height="180" rx="40" fill="#10B981"/>
  <path d="M98 47.5V59C107.665 59 115.5 66.835 115.5 76.5C115.5 86.165 107.665 94 98 94H81.5C74.5964 94 69 99.5964 69 106.5C69 113.404 74.5964 119 81.5 119H98C107.665 119 115.5 126.835 115.5 136.5V148" stroke="white" stroke-width="10" stroke-linecap="round"/>
  <path d="M81.5 59C71.835 59 64 66.835 64 76.5C64 86.165 71.835 94 81.5 94" stroke="white" stroke-width="10" stroke-linecap="round"/>
  <circle cx="90" cy="90" r="70" stroke="white" stroke-width="8"/>
  <path d="M90 30V42" stroke="white" stroke-width="10" stroke-linecap="round"/>
  <path d="M90 138V150" stroke="white" stroke-width="10" stroke-linecap="round"/>
</svg>
