<svg width="32" height="32" viewBox="0 0 32 32" fill="none" xmlns="http://www.w3.org/2000/svg">
  <rect width="32" height="32" rx="6" fill="#10B981"/>
  <path d="M17.5 8.5V10.5C19.1569 10.5 20.5 11.8431 20.5 13.5C20.5 15.1569 19.1569 16.5 17.5 16.5H14.5C13.3954 16.5 12.5 17.3954 12.5 18.5C12.5 19.6046 13.3954 20.5 14.5 20.5H17.5C19.1569 20.5 20.5 21.8431 20.5 23.5V25.5" stroke="white" stroke-width="2" stroke-linecap="round"/>
  <path d="M14.5 10.5C12.8431 10.5 11.5 11.8431 11.5 13.5C11.5 15.1569 12.8431 16.5 14.5 16.5" stroke="white" stroke-width="2" stroke-linecap="round"/>
  <circle cx="16" cy="16" r="15" stroke="#10B981" stroke-width="2"/>
  <path d="M16 6V8" stroke="white" stroke-width="2" stroke-linecap="round"/>
  <path d="M16 24V26" stroke="white" stroke-width="2" stroke-linecap="round"/>
</svg>
